<?xml version="1.0" encoding="iso-8859-1"?>
<!-- Generator: Adobe Illustrator 18.0.0, SVG Export Plug-In . SVG Version: 6.00 Build 0)  -->
<!DOCTYPE svg PUBLIC "-//W3C//DTD SVG 1.1//EN" "http://www.w3.org/Graphics/SVG/1.1/DTD/svg11.dtd">
<svg version="1.1" id="_x32_" xmlns="http://www.w3.org/2000/svg" xmlns:xlink="http://www.w3.org/1999/xlink" x="0px" y="0px"
	 viewBox="0 0 512 512" style="enable-background:new 0 0 512 512;" xml:space="preserve">
<g>
	<rect style="fill:#887C6D;" width="512" height="512"/>
	<path style="opacity:0.15;fill:#040000;" d="M512,235.418V512H272.128L154.931,394.803c-10.137-17.254-17.817-45.414-25.651-86.938
		c-6.503-34.611-17.152-55.04-27.29-102.81c-3.533-16.64-4.403-31.846-3.072-45.209l52.224-52.224l12.083-12.083
		c40.345,2.253,81.612,32.768,92.774,32.768c12.544,0,63.488-38.809,108.134-32.154c4.198,0.614,8.192,1.792,12.032,3.43
		L512,235.418z"/>
	<g>
		<g>
			<path style="fill:#CFEAEE;" d="M255.992,128.307v170.752c-31.795,0-31.181,117.555-67.021,117.555
				c-5.734,0-10.854-1.075-15.565-3.328c-7.066-3.379-13.107-9.421-18.483-18.484c-10.137-17.254-17.818-45.414-25.651-86.938
				c-6.502-34.611-17.152-55.04-27.29-102.81c-3.533-16.64-4.403-31.846-3.072-45.209c3.482-36.557,23.091-59.802,48.948-63.693
				c5.069-0.768,10.189-0.922,15.36-0.614C203.563,97.792,244.83,128.307,255.992,128.307z"/>
			<path style="fill:#CFEAEE;" d="M410.002,205.056c-10.137,47.77-20.787,68.198-27.289,102.81
				c-14.643,77.722-28.826,108.749-59.699,108.749c-35.84,0-35.226-117.555-67.021-117.555V128.307
				c12.544,0,63.488-38.809,108.134-32.153c4.199,0.614,8.192,1.792,12.032,3.43c11.93,5.018,21.862,14.797,28.518,28.518
				C413.842,146.995,416.709,173.363,410.002,205.056z"/>
		</g>
		<path style="fill:#EAF6F8;" d="M410.002,205.056c-10.137,47.77-20.787,68.198-27.289,102.81
			c-14.643,77.722-28.826,108.749-59.699,108.749c-35.84,0-35.226-117.555-67.021-117.555c-31.795,0-31.181,117.555-67.021,117.555
			c-5.734,0-10.854-1.075-15.565-3.328c-7.066-3.379-13.107-9.421-18.483-18.484c-10.137-17.254-17.818-45.414-25.651-86.938
			c-6.502-34.611-17.152-55.04-27.29-102.81c-3.533-16.64-4.403-31.846-3.072-45.209c3.482-36.557,23.091-59.802,48.948-63.693
			c5.069-0.768,10.189-0.922,15.36-0.614c40.345,2.253,81.612,32.768,92.774,32.768c12.544,0,63.488-38.809,108.134-32.153
			c4.199,0.614,8.192,1.792,12.032,3.43c11.93,5.018,21.862,14.797,28.518,28.518C413.842,146.995,416.709,173.363,410.002,205.056z
			"/>
		<path style="fill:#EAF6F8;" d="M228.644,129.787c-19.189-9.553-45.469-22.635-70.062-22.635c-3.096,0-6.111,0.217-8.963,0.644
			c-10.902,1.633-20.328,7.776-27.259,17.766c-12.274,17.69-15.505,45.783-8.868,77.071c5.083,23.958,10.395,41.216,15.083,56.443
			c4.604,14.958,8.954,29.087,12.26,46.64c15.615,82.91,29.469,99.132,48.123,99.132c3.118,0,7.138-4.634,11.03-12.713
			c5.129-10.65,9.359-25.639,13.449-40.133c9.385-33.257,18.249-64.669,42.556-64.669V140.046
			C249.251,140.046,241.495,136.184,228.644,129.787z"/>
		<path style="opacity:0.5;fill:#DDF0F6;" d="M298.548,352.001c4.09,14.494,8.32,29.483,13.449,40.133
			c3.891,8.079,7.912,12.713,11.03,12.713c18.653,0,32.507-16.221,48.121-99.132c3.306-17.554,7.656-31.684,12.261-46.643
			c4.688-15.225,10-32.483,15.083-56.439c6.638-31.29,3.405-59.381-8.869-77.072c-6.932-9.99-16.357-16.132-27.258-17.765
			c-2.852-0.427-5.867-0.644-8.963-0.644c-24.593,0-50.874,13.083-70.063,22.635c-12.851,6.397-20.606,10.258-27.348,10.258l0,0
			v147.286l0,0C280.299,287.332,289.163,318.745,298.548,352.001z"/>
		<path style="fill:#B6D0D5;" d="M213.461,153.487c-1.893-2.225-5.23-2.496-7.455-0.606c-2.225,1.891-2.496,5.229-0.606,7.455
			c13.483,15.868,31.436,29.284,50.592,29.49v-34.061C239.988,155.968,224.899,166.95,213.461,153.487z"/>
		<path style="fill:#A6C1C6;" d="M307.473,160.336c1.89-2.226,1.619-5.564-0.606-7.455c-2.226-1.89-5.563-1.619-7.455,0.606
			c-11.544,13.588-26.807,2.269-42.976,2.269c-0.148,0-0.296,0.007-0.444,0.009v34.061c0.148,0.002,0.296,0.01,0.444,0.01
			C275.76,189.835,293.885,176.327,307.473,160.336z"/>
	</g>
</g>
</svg>
